# xmcd
#
# Track frame offsets: 
#        150
#        12202
#        25369
#        37586
#        51906
#        64258
#        78118
#        90573
#        103602
#        119027
#        132476
#        145261
#        160333
#        170576
#        181959
#        188880
#        201393
#        208975
#        218086
#        226924
#        236687
#        248982
#        262066
#
# Disc length: 3676 seconds
#
# Revision: 0
# Processed by: cddbd v1.5.2PL0 Copyright (c) Steve Scherf et al.
# Submitted via: ExactAudioCopy v0.95b3
#
DISCID=510e5a17
DTITLE=Teddy Wilson  - 1947 - 1950  
DYEAR=1900
DGENRE=
TTITLE0=The Sheik Of Araby
TTITLE1=Limehouse Blues
TTITLE2=After You've Gone
TTITLE3=Georgia On My Mind
TTITLE4=Chinatown. My Chinatown
TTITLE5=Bess. You Is My Woman Now
TTITLE6=Whispering
TTITLE7=Just Like A Butterfly
TTITLE8=Something I Dreamed Last Night
TTITLE9=As Time Goes By
TTITLE10=Isn't It Romantic
TTITLE11=These Foolish Things
TTITLE12=Just One Of Those Things
TTITLE13=Just Like A Butterfly
TTITLE14=Runnin' Wild
TTITLE15=I've Got The World On A String
TTITLE16=Fine And Dandy
TTITLE17=Ghost Of A Chance
TTITLE18=Honeysuckle Rose
TTITLE19=Between The Devil And The Deep Blue Sea
TTITLE20=Bess. You Is My Woman Now
TTITLE21=I Can't Give You Anything But Love
TTITLE22=After You've Gone
EXTD=
EXTT0=
EXTT1=
EXTT2=
EXTT3=
EXTT4=
EXTT5=
EXTT6=
EXTT7=
EXTT8=
EXTT9=
EXTT10=
EXTT11=
EXTT12=
EXTT13=
EXTT14=
EXTT15=
EXTT16=
EXTT17=
EXTT18=
EXTT19=
EXTT20=
EXTT21=
EXTT22=
PLAYORDER=
